<?xml version="1.0" encoding="utf-8"?>
<!-- Generator: Adobe Illustrator 20.1.0, SVG Export Plug-In . SVG Version: 6.00 Build 0)  -->
<svg version="1.1" xmlns="http://www.w3.org/2000/svg" xmlns:xlink="http://www.w3.org/1999/xlink" x="0px" y="0px" viewBox="0 0 144 166.3" style="enable-background:new 0 0 144 166.3;" xml:space="preserve">
	<style type="text/css">
		.st0 {
			display: none;
		}
		.st1 {
			display: inline;
			fill: #4881B4;
		}
		.st2 {
			fill: #FFFFFF;
		}
		.st3 {
			fill: #4881B4;
		}

	</style>
	<g id="Layer_2" class="st0">
		<rect x="-36" y="-24.9" class="st1" width="216" height="216"/>
	</g>
	<g id="Layer_1">
		<g>
			<path class="st2" d="M122.2,112.1H84.7V54.2h12.9v45h24.6V112.1z M87,109.7h32.8v-8.2H95.2v-45H87V109.7z"/>
			<path class="st2" d="M55.8,112.1H42.9v-45H21.8V54.2h55v12.9H55.8V112.1z M45.3,109.7h8.2v-45h21.1v-8.2H24.2v8.2h21.1V109.7z"/>
		</g>
		<path
			class="st3"
			d="M72,0L0,41.6v83.1l72,41.6l72-41.6V41.6L72,0z M2.4,42.9L72,2.7l57.9,33.4V47L72,13.6L11.7,48.4v68.9v0.7v10.8
		l-9.4-5.4V42.9z M129.9,49.7v66.9L72,150l-57.9-33.4V49.7L72,16.3L129.9,49.7z M141.6,123.3L72,163.6l-57.9-33.4v-10.8L72,152.7
		l60.3-34.8V49v-0.7V37.5l9.4,5.4V123.3z"/>
	</g>
</svg>
